{"title":"Grand Masti 2013 Hindi Movii DVD RIP  XviD ","uid":9036387,"size":732251353,"categoryP":"video","categoryS":"movies","magnet":"?xt=urn:btih:98b94c0ed496b9595b74316914107a5827906f89&amp;dn=Grand+Masti+2013+Hindi+Movii+DVD+RIP++XviD+&amp;tr=udp%3A%2F%2Ftracker.openbittorrent.com%3A80&amp;tr=udp%3A%2F%2Fopen.demonii.com%3A1337&amp;tr=udp%3A%2F%2Ftracker.coppersurfer.tk%3A6969&amp;tr=udp%3A%2F%2Fexodus.desync.com%3A6969","seeders":0,"leechers":1,"uploader":"jatt13","files":10,"time":1381514558,"description":"[img]http://imageshack.us/a/img547/9959/s7j6.jpg[/img]\n\n[img]http://imageshack.us/a/img845/2428/gzoc.jpg[/img]\n\n[img]http://imageshack.us/a/img62/9820/v4f6.png[/img]\n\nimdb [url]http://www.imdb.com/title/tt2476154/[/url]\n\nDirector:Indra Kumar\nWriters:Tushar Hiranandani (story), Milap Zaveri , \nStars:Ritesh Deshmukh, Vivek Oberoi, Aftab Shivdasani  \n\n[img]http://imageshack.us/a/img443/2436/53o1.jpg[/img]\n[img]http://imageshack.us/a/img812/9255/2hyb.png[/img]\n[img]http://imageshack.us/a/img401/5057/gd34.png[/img]\n[img]http://imageshack.us/a/img837/1843/0rtz.png[/img]\n[img]http://imageshack.us/a/img823/6286/i35a.png[/img]\n[img]http://imageshack.us/a/img59/2158/21q6.png[/img]\n\nVideo\nID                             : 0\nFormat                         : MPEG-4 Visual\nFormat profile                 : Advanced Simple@L5\nFormat settings, BVOP          : Yes\nFormat settings, QPel          : No\nFormat settings, GMC           : No warppoints\nFormat settings, Matrix        : Default (H.263)\nCodec ID                       : XVID\nCodec ID/Hint                  : XviD\nDuration                       : 2h 14mn\nBit rate                       : 637 Kbps\nWidth                          : 640 pixels\nHeight                         : 272 pixels\nDisplay aspect ratio           : 2.35:1\nFrame rate                     : 24.000 fps\nColor space                    : YUV\nChroma subsampling             : 4:2:0\nBit depth                      : 8 bits\nScan type                      : Progressive\nCompression mode               : Lossy\nBits/(Pixel*Frame)             : 0.152\nStream size                    : 614 MiB (88%)\nWriting library                : XviD 1.2.1 (UTC 2008-12-04)\n\nAudio\nID                             : 1\nFormat                         : MPEG Audio\nFormat version                 : Version 1\nFormat profile                 : Layer 3\nMode                           : Joint stereo\nMode extension                 : MS Stereo\nCodec ID                       : 55\nCodec ID/Hint                  : MP3\nDuration                       : 2h 14mn\nBit rate mode                  : Constant\nBit rate                       : 80.0 Kbps\nChannel count                  : 2 channels\nSampling rate                  : 32.0 KHz\nCompression mode               : Lossy\nStream size                    : 77.2 MiB (11%)\nAlignment                      : Aligned on interleaves\nInterleave, duration           : 167 ms (4.00 video frames)\nInterleave, preload duration   : 216 ms\nTitle                          : grand\nWriting library                : LAME3.99r\nEncoding settings              : -m j -V 4 -q 2 -lowpass 13.5 -b 80\n\n","torrent":{"xt":"urn:btih:98b94c0ed496b9595b74316914107a5827906f89","amp;dn":"Grand+Masti+2013+Hindi+Movii+DVD+RIP++XviD+","amp;tr":["udp%3A%2F%2Ftracker.openbittorrent.com%3A80","udp%3A%2F%2Fopen.demonii.com%3A1337","udp%3A%2F%2Ftracker.coppersurfer.tk%3A6969","udp%3A%2F%2Fexodus.desync.com%3A6969"],"infoHash":"98b94c0ed496b9595b74316914107a5827906f89","infoHashBuffer":{"type":"Buffer","data":[152,185,76,14,212,150,185,89,91,116,49,105,20,16,122,88,39,144,111,137]},"announce":[],"urlList":[]}}